<svg id="Gradient" height="512" viewBox="0 0 512 512" width="512" xmlns="http://www.w3.org/2000/svg" xmlns:xlink="http://www.w3.org/1999/xlink"><linearGradient id="linear-gradient" gradientUnits="userSpaceOnUse" x1="256" x2="256" y1="496" y2="16"><stop offset="0" stop-color="#12c2e9"/><stop offset=".5" stop-color="#c471ed"/><stop offset="1" stop-color="#f64f59"/></linearGradient><path d="m48 496a32 32 0 1 1 0-64 286.123 286.123 0 0 0 203.653-84.354 286.106 286.106 0 0 0 84.356-203.646l-38.4 51.2a32 32 0 0 1 -51.2-38.4l96-128a32 32 0 0 1 51.2 0l96 128a32 32 0 1 1 -51.2 38.4l-38.4-51.2a349.819 349.819 0 0 1 -27.675 137.023 350.793 350.793 0 0 1 -75.424 111.877 351.016 351.016 0 0 1 -248.91 103.1zm296.01-384a8 8 0 0 1 8 8v24a302.008 302.008 0 0 1 -89.042 214.96 302.023 302.023 0 0 1 -214.968 89.04 16 16 0 1 0 0 32 335.009 335.009 0 0 0 237.6-98.412 334.868 334.868 0 0 0 72-106.8 333.9 333.9 0 0 0 26.411-130.788v-24a8 8 0 0 1 14.4-4.8l52.8 70.4a16 16 0 0 0 25.6-19.2l-96-128a16 16 0 0 0 -25.6 0l-96 128a16 16 0 0 0 25.6 19.2l52.8-70.4a8 8 0 0 1 6.4-3.2z" fill="url(#linear-gradient)"/></svg>