<svg height="512pt" viewBox="0 0 512.03485 512" width="512pt" xmlns="http://www.w3.org/2000/svg"><path d="m503.328125 390.074219c-3.140625 58.007812-47.394531 105.425781-105.046875 112.554687-9.066406 1.082032-18.226562 1.136719-27.308594.171875-19.550781-2.144531-38.261718-9.125-54.441406-20.308593-4.082031-2.933594-8.96875-4.542969-13.996094-4.609376h-93.011718c-5.027344.066407-9.914063 1.675782-13.996094 4.609376-23.386719 16.136718-51.789063 23.34375-80.042969 20.308593-.570313-.015625-1.140625-.070312-1.703125-.171875-62.757812-7.539062-108.777344-62.65625-105-125.75 3.773438-63.09375 56.042969-112.328125 119.25-112.328125h256c32.730469.003907 64.03125 13.441407 86.578125 37.167969 22.550781 23.726562 34.375 55.667969 32.71875 88.355469zm0 0" fill="#a4c2f7"/><path d="m477.726562 390.074219c-3.140624 58.007812-47.394531 105.425781-105.046874 112.554687-.5625.101563-1.132813.15625-1.707032.171875-19.550781-2.144531-38.261718-9.125-54.441406-20.308593-4.082031-2.933594-8.96875-4.542969-13.996094-4.609376h-97.703125c-12.25 4.332032-23.960937 10.058594-34.902343 17.066407-15.789063 10.925781-34.390626 5.632812-54.445313 7.851562-.570313-.015625-1.140625-.070312-1.703125-.171875-62.757812-7.539062-108.777344-62.65625-105-125.75 3.773438-63.09375 56.042969-112.328125 119.25-112.328125h230.398438c32.734374.003907 64.03125 13.441407 86.582031 37.167969 22.546875 23.726562 34.375 55.667969 32.714843 88.355469zm0 0" fill="#d4e1f4"/><path d="m187.761719 384.015625c0 32.992187-26.742188 59.734375-59.730469 59.734375-32.992188 0-59.734375-26.742188-59.734375-59.734375 0-32.988281 26.742187-59.730469 59.734375-59.730469 32.988281 0 59.730469 26.742188 59.730469 59.730469zm0 0" fill="#a4c2f7"/><path d="m469.363281 384.015625c0 47.128906-38.203125 85.335937-85.332031 85.335937-4.230469.003907-8.457031-.339843-12.628906-1.023437-.085938.082031-.171875.082031-.34375 0-41.535156-6.496094-72.152344-42.269531-72.152344-84.3125 0-42.039063 30.617188-77.8125 72.152344-84.308594.171875-.085937.257812-.085937.34375 0 4.171875-.6875 8.398437-1.027343 12.628906-1.023437 47.128906 0 85.332031 38.207031 85.332031 85.332031zm0 0" fill="#7fabfa"/><path d="m443.761719 384.015625c-.015625 42.109375-30.742188 77.910156-72.359375 84.3125-.085938.082031-.171875.082031-.34375 0-41.535156-6.496094-72.152344-42.269531-72.152344-84.3125 0-42.039063 30.617188-77.8125 72.152344-84.308594.171875-.085937.257812-.085937.34375 0 41.617187 6.402344 72.34375 42.203125 72.359375 84.308594zm0 0" fill="#a4c2f7"/><path d="m379.03125 342.820312c6.667969 6.664063 6.667969 17.46875 0 24.132813l-12.066406 12.070313c-6.664063 6.664062-17.472656 6.664062-24.136719 0-6.664063-6.664063-6.664063-17.472657 0-24.136719l12.070313-12.066407c6.664062-6.667968 17.46875-6.667968 24.132812 0zm0 0" fill="#e3e7f2"/><path d="m430.234375 385.488281c6.664063 6.664063 6.664063 17.46875 0 24.132813l-12.070313 12.070312c-6.664062 6.664063-17.46875 6.664063-24.132812 0-6.667969-6.664062-6.667969-17.472656 0-24.136718l12.066406-12.066407c6.664063-6.667969 17.472656-6.667969 24.136719 0zm0 0" fill="#e3e7f2"/><path d="m204.832031 264.550781h102.398438v17.066407c0 9.425781-7.640625 17.066406-17.066407 17.066406h-68.265624c-9.425782 0-17.066407-7.640625-17.066407-17.066406zm0 0" fill="#a4c2f7"/><path d="m247.496094 230.417969h17.066406c9.425781 0 17.066406 7.640625 17.066406 17.066406v17.066406h-51.199218v-17.066406c0-9.425781 7.640624-17.066406 17.066406-17.066406zm0 0" fill="#a4c2f7"/><path d="m370.972656 502.800781c8.421875.863281 16.90625.84375 25.320313-.050781-19.449219-2.171875-38.058594-9.132812-54.160157-20.257812-4.082031-2.933594-8.96875-4.542969-13.996093-4.609376h-25.601563c5.027344.066407 9.914063 1.675782 13.996094 4.609376 16.179688 11.183593 34.890625 18.164062 54.441406 20.308593zm0 0" fill="#fff"/><path d="m113.78125 502.628906c.5625.101563 1.132812.15625 1.703125.171875 8.28125.832031 16.625.808594 24.902344-.066406-.324219 0-.65625-.050781-1.007813-.105469-62.753906-7.539062-108.777344-62.65625-105-125.75s56.046875-112.328125 119.25-112.328125h-25.597656c-63.207031 0-115.476562 49.234375-119.25 112.328125-3.777344 63.09375 42.242188 118.210938 105 125.75zm0 0" fill="#fff"/><path d="m256.03125 247.484375c.027344-7.757813 5.285156-14.523437 12.800781-16.460937-1.390625-.382813-2.824219-.589844-4.269531-.605469h-17.066406c-9.425782 0-17.066406 7.640625-17.066406 17.066406v17.066406h25.601562zm0 0" fill="#fff"/><path d="m128.03125 452.285156c-37.703125 0-68.269531-30.566406-68.269531-68.269531 0-37.699219 30.566406-68.265625 68.269531-68.265625s68.265625 30.566406 68.265625 68.265625c-.042969 37.6875-30.582031 68.226563-68.265625 68.269531zm0-119.46875c-28.277344 0-51.199219 22.925782-51.199219 51.199219 0 28.277344 22.921875 51.203125 51.199219 51.203125s51.199219-22.925781 51.199219-51.203125c-.027344-28.261719-22.933594-51.171875-51.199219-51.199219zm0 0" fill="#428dff"/><path d="m384.03125 477.882812c-51.84375 0-93.867188-42.023437-93.867188-93.867187 0-51.839844 42.023438-93.863281 93.867188-93.863281 51.839844 0 93.867188 42.023437 93.867188 93.863281-.0625 51.816406-42.050782 93.808594-93.867188 93.867187zm0-170.664062c-42.417969 0-76.800781 34.382812-76.800781 76.796875 0 42.417969 34.382812 76.800781 76.800781 76.800781 42.414062 0 76.800781-34.382812 76.800781-76.800781-.054687-42.390625-34.40625-76.746094-76.800781-76.796875zm0 0" fill="#428dff"/><path d="m42.996094 264.550781c-3.761719.003907-7.082032-2.457031-8.175782-6.054687-1.09375-3.601563.300782-7.492188 3.429688-9.578125 26.582031-17.71875 57.835938-27.128907 89.78125-27.035157 4.710938 0 8.53125 3.820313 8.53125 8.535157 0 4.710937-3.820312 8.53125-8.53125 8.53125-28.570312-.09375-56.523438 8.316406-80.300781 24.160156-1.398438.9375-3.046875 1.4375-4.734375 1.441406zm0 0" fill="#428dff"/><path d="m469.066406 264.550781c-1.6875-.003906-3.335937-.503906-4.738281-1.441406-23.773437-15.84375-51.726563-24.253906-80.296875-24.160156-4.714844 0-8.535156-3.820313-8.535156-8.53125 0-4.714844 3.820312-8.535157 8.535156-8.535157 31.945312-.09375 63.195312 9.316407 89.777344 27.035157 3.132812 2.085937 4.523437 5.976562 3.433594 9.578125-1.09375 3.597656-4.414063 6.058594-8.175782 6.054687zm0 0" fill="#428dff"/><path d="m112.773438 511.164062c-61.726563-7.757812-109.09375-58.511718-112.582032-120.628906l17.066406-.851562c3.085938 53.769531 44.070313 97.691406 97.496094 104.492187zm0 0" fill="#fff"/><g fill="#428dff"><path d="m73.210938 490.113281c-1.042969 2.078125-1.167969 4.5-.34375 6.675781.824218 2.175782 2.519531 3.90625 4.679687 4.773438 11.246094 4.796875 23.097656 8.015625 35.226563 9.558594l1.980468-16.945313c-10.472656-1.359375-20.707031-4.140625-30.421875-8.269531-4.238281-1.664062-9.042969.15625-11.121093 4.207031zm0 0"/><path d="m17.242188 389.691406-17.066407.855469c1.09375 20.136719 6.941407 39.730469 17.066407 57.171875 1.613281 2.558594 2.996093 5.308594 4.8125 7.75 1.257812 1.96875 3.285156 3.320312 5.585937 3.726562s4.664063-.167968 6.523437-1.585937c3.628907-2.769531 4.535157-7.855469 2.082032-11.707031-1.597656-2.117188-2.765625-4.507813-4.183594-6.734375-8.769531-15.09375-13.847656-32.046875-14.820312-49.476563zm0 0"/><path d="m46.546875 482.421875c1.8125 1.527344 4.152344 2.285156 6.519531 2.109375l1.644532-.417969c.554687-.183593 1.082031-.449219 1.5625-.785156.488281-.246094.9375-.566406 1.332031-.945313.402343-.402343.785156-.832031 1.132812-1.28125 1.273438-1.824218 1.84375-4.046874 1.605469-6.253906-.171875-1.070312-.5-2.109375-.972656-3.082031-1.539063-2.851563-4.621094-4.527344-7.851563-4.265625-1.089843.09375-2.15625.382812-3.148437.851562-3.203125 1.375-5.222656 4.589844-5.066406 8.074219.238281 2.351563 1.40625 4.507813 3.242187 5.996094zm0 0"/><path d="m127.78125 512.015625c-5.015625.007813-10.027344-.277344-15.007812-.851563-4.683594-.542968-8.039063-4.78125-7.492188-9.464843.542969-4.679688 4.78125-8.035157 9.460938-7.492188 26.757812 3.292969 53.789062-3.371093 75.949218-18.722656 5.515625-3.90625 12.089844-6.046875 18.847656-6.132813h93.015626c6.753906.074219 13.328124 2.203126 18.847656 6.101563 22.15625 15.359375 49.191406 22.023437 75.949218 18.722656 53.4375-6.765625 94.433594-50.707031 97.476563-104.484375 1.554687-30.367187-9.425781-60.042968-30.371094-82.085937-20.941406-22.042969-50.019531-34.523438-80.425781-34.519531h-256c-30.410156-.003907-59.484375 12.476562-80.429688 34.519531-20.945312 22.042969-31.921874 51.71875-30.367187 82.085937.234375 4.714844-3.394531 8.726563-8.109375 8.960938-4.710938.234375-8.722656-3.394532-8.957031-8.105469-1.789063-35.042969 10.882812-69.28125 35.054687-94.710937 24.171875-25.433594 57.722656-39.828126 92.808594-39.820313h256c35.082031 0 68.625 14.398437 92.789062 39.828125 24.167969 25.429688 36.835938 59.664062 35.046876 94.703125-2.308594 46.289063-29.484376 87.703125-71.03125 108.25-41.546876 20.542969-90.957032 17-129.144532-9.265625-2.667968-1.945312-5.867187-3.03125-9.171875-3.113281h-93.011719c-3.300781.078125-6.503906 1.15625-9.175781 3.097656-21.347656 14.667969-46.644531 22.515625-72.550781 22.5zm0 0"/><path d="m128.03125 418.152344c-4.714844 0-8.535156-3.820313-8.535156-8.535156v-51.199219c0-4.714844 3.820312-8.535157 8.535156-8.535157 4.710938 0 8.53125 3.820313 8.53125 8.535157v51.199219c0 4.714843-3.820312 8.535156-8.53125 8.535156zm0 0"/><path d="m153.628906 392.550781h-51.199218c-4.710938 0-8.53125-3.820312-8.53125-8.535156 0-4.710937 3.820312-8.53125 8.53125-8.53125h51.199218c4.714844 0 8.535156 3.820313 8.535156 8.53125 0 4.714844-3.820312 8.535156-8.535156 8.535156zm0 0"/><path d="m204.832031 443.75c-3.453125 0-6.5625-2.078125-7.882812-5.265625-1.320313-3.191406-.59375-6.859375 1.847656-9.300781l17.066406-17.066406c3.347657-3.234376 8.671875-3.1875 11.960938.105468 3.292969 3.289063 3.339843 8.613282.105469 11.960938l-17.066407 17.066406c-1.601562 1.601562-3.769531 2.5-6.03125 2.5zm0 0"/><path d="m256.03125 443.75c-3.453125 0-6.5625-2.078125-7.882812-5.265625-1.320313-3.191406-.589844-6.859375 1.847656-9.300781l17.066406-17.066406c3.351562-3.234376 8.671875-3.1875 11.964844.105468 3.289062 3.289063 3.335937 8.613282.101562 11.960938l-17.066406 17.066406c-1.597656 1.601562-3.769531 2.5-6.03125 2.5zm0 0"/><path d="m354.898438 392.550781c-10.351563-.003906-19.683594-6.238281-23.644532-15.796875-3.964844-9.5625-1.777344-20.570312 5.535156-27.894531l12.074219-12.074219c6.449219-6.554687 15.921875-9.144531 24.808594-6.789062 8.890625 2.359375 15.832031 9.300781 18.183594 18.191406 2.355469 8.886719-.238281 18.355469-6.792969 24.804688l-12.066406 12.066406c-4.796875 4.804687-11.308594 7.5-18.097656 7.492187zm12.066406-46.199219c-2.261719-.003906-4.433594.894532-6.035156 2.492188l-12.074219 12.074219c-3.332031 3.335937-3.328125 8.738281.003906 12.070312 3.335937 3.332031 8.738281 3.328125 12.070313-.003906l12.066406-12.066406c2.441406-2.441407 3.171875-6.109375 1.847656-9.296875-1.320312-3.191406-4.429688-5.269532-7.878906-5.269532zm0 0"/><path d="m406.097656 435.21875c-10.351562-.003906-19.679687-6.238281-23.644531-15.800781-3.960937-9.5625-1.777344-20.566407 5.535156-27.890625l12.074219-12.074219c6.453125-6.554687 15.921875-9.148437 24.808594-6.789063 8.890625 2.355469 15.832031 9.300782 18.1875 18.1875 2.355468 8.890626-.238282 18.359376-6.796875 24.808594l-12.066407 12.066406c-4.796874 4.804688-11.308593 7.5-18.097656 7.492188zm12.066406-46.199219c-2.261718-.003906-4.433593.894531-6.035156 2.488281l-12.074218 12.078126c-2.152344 2.15625-2.996094 5.296874-2.203126 8.242187.789063 2.945313 3.089844 5.246094 6.035157 6.035156 2.945312.789063 6.089843-.054687 8.242187-2.210937l12.066406-12.066406c2.441407-2.441407 3.171876-6.113282 1.851563-9.300782s-4.433594-5.265625-7.882813-5.265625zm0 0"/><path d="m290.164062 307.21875h-68.265624c-14.140626 0-25.601563-11.460938-25.601563-25.601562v-17.066407c0-4.710937 3.820313-8.535156 8.535156-8.535156h102.398438c4.710937 0 8.53125 3.824219 8.53125 8.535156v17.066407c0 14.140624-11.460938 25.601562-25.597657 25.601562zm-76.800781-34.132812v8.53125c0 4.714843 3.820313 8.535156 8.535157 8.535156h68.265624c4.710938 0 8.53125-3.820313 8.53125-8.535156v-8.53125zm0 0"/><path d="m281.628906 273.085938h-51.199218c-4.710938 0-8.53125-3.824219-8.53125-8.535157v-17.066406c0-14.140625 11.460937-25.601563 25.597656-25.601563h17.066406c14.140625 0 25.601562 11.460938 25.601562 25.601563v17.066406c0 4.710938-3.820312 8.535157-8.535156 8.535157zm-42.664062-17.070313h34.132812v-8.53125c0-4.714844-3.820312-8.535156-8.535156-8.535156h-17.066406c-4.710938 0-8.53125 3.820312-8.53125 8.535156zm0 0"/><path d="m256.03125 238.949219c-4.714844 0-8.535156-3.820313-8.535156-8.53125v-8.535157c.039062-32.972656 26.761718-59.695312 59.734375-59.730468h8.53125c23.566406 0 42.667969-19.105469 42.667969-42.667969s-19.101563-42.667969-42.667969-42.667969h-102.398438c-32.972656-.035156-59.695312-26.757812-59.734375-59.730468v-8.535157c0-4.710937 3.820313-8.535156 8.535156-8.535156 4.710938 0 8.53125 3.824219 8.53125 8.535156v8.535157c.03125 23.550781 19.117188 42.636718 42.667969 42.664062h102.398438c32.992187 0 59.734375 26.746094 59.734375 59.734375s-26.742188 59.734375-59.734375 59.734375h-8.53125c-23.550781.027344-42.640625 19.113281-42.667969 42.664062v8.535157c0 2.261719-.898438 4.433593-2.5 6.035156-1.597656 1.597656-3.769531 2.496094-6.03125 2.496094zm0 0"/></g></svg>