<svg id="Capa_1" enable-background="new 0 0 512 512" height="512" viewBox="0 0 512 512" width="512" xmlns="http://www.w3.org/2000/svg"><g><g><path d="m436 40v432c0 16.57-13.43 30-30 30h-300c-16.57 0-30-13.43-30-30v-432c0-16.57 13.43-30 30-30h300c16.57 0 30 13.43 30 30z" fill="#91def5"/><path d="m136 76h240v300h-240z" fill="#fff5f5"/></g><g><path d="m386 376v-300c0-5.523-4.477-10-10-10h-240c-5.523 0-10 4.477-10 10v300c0 5.523 4.477 10 10 10h240c5.523 0 10-4.477 10-10zm-20-10h-220v-280h220z"/><path d="m196 146h120c5.523 0 10-4.477 10-10s-4.477-10-10-10h-120c-5.523 0-10 4.477-10 10s4.477 10 10 10z"/><path d="m196 206h120c5.523 0 10-4.477 10-10s-4.477-10-10-10h-120c-5.523 0-10 4.477-10 10s4.477 10 10 10z"/><path d="m196 266h120c5.523 0 10-4.477 10-10s-4.477-10-10-10h-120c-5.523 0-10 4.477-10 10s4.477 10 10 10z"/><path d="m196 326h120c5.523 0 10-4.477 10-10s-4.477-10-10-10h-120c-5.523 0-10 4.477-10 10s4.477 10 10 10z"/><path d="m296 439c0-5.523-4.477-10-10-10h-60c-5.523 0-10 4.477-10 10s4.477 10 10 10h60c5.523 0 10-4.477 10-10z"/><circle cx="256" cy="502" r="10"/><path d="m106 512h105c5.523 0 10-4.477 10-10s-4.477-10-10-10h-105c-11.028 0-20-8.972-20-20v-432c0-11.028 8.972-20 20-20h300c11.028 0 20 8.972 20 20v432c0 11.028-8.972 20-20 20h-105c-5.523 0-10 4.477-10 10s4.477 10 10 10h105c22.056 0 40-17.944 40-40v-432c0-22.056-17.944-40-40-40h-300c-22.056 0-40 17.944-40 40v432c0 22.056 17.944 40 40 40z"/></g></g></svg>