<svg height="512pt" viewBox="0 0 512 512.00003" width="512pt" xmlns="http://www.w3.org/2000/svg"><path d="m379.03125 37.632812c-2.855469 2.957032-6.730469 4.726563-10.835938 4.949219.171876 7.421875.171876 16.128907-.171874 25.683594-1.109376 37.632813-6.824219 89.429687-26.625 132.609375h-.082032c-15.363281 33.707031-39.511718 62.035156-76.800781 74.238281v83.285157h17.066406c9.425781 0 17.066407 7.640624 17.066407 17.066406v25.601562h34.132812c4.714844 0 8.535156 3.820313 8.535156 8.535156v59.730469c9.425782 0 17.066406 7.640625 17.066406 17.066407v17.066406h-273.066406v-17.066406c.027344-9.414063 7.652344-17.035157 17.066406-17.066407v-59.730469c0-4.714843 3.820313-8.535156 8.53125-8.535156h34.132813v-25.601562c.03125-9.414063 7.652344-17.035156 17.066406-17.066406h17.066407v-83.285157c-37.289063-12.203125-61.4375-40.53125-76.796876-74.238281h-.085937c-19.796875-43.179688-25.515625-94.976562-26.625-132.609375-.339844-9.554687-.339844-18.261719-.171875-25.683594-8.886719-.667969-15.765625-8.066406-15.785156-16.980469-.023438-4.527343 1.792968-8.871093 5.035156-12.035156 3.160156-3.238281 7.503906-5.058594 12.03125-5.03125h290.132812c6.898438-.007812 13.117188 4.136719 15.769532 10.503906 2.652344 6.367188 1.210937 13.703126-3.652344 18.59375zm0 0" fill="#a4c2f7"/><path d="m353.433594 37.632812c-2.859375 2.957032-6.730469 4.726563-10.839844 4.949219.171875 7.421875.171875 16.128907-.167969 25.683594-1.109375 37.632813-6.828125 89.429687-26.625 132.609375h-.085937c-15.359375 33.707031-39.507813 62.035156-76.800782 74.238281v83.285157h17.066407c9.425781 0 17.066406 7.640624 17.066406 17.066406v25.601562h34.132813c4.714843 0 8.535156 3.820313 8.535156 8.535156v59.730469c9.425781 0 17.066406 7.640625 17.066406 17.066407v17.066406h-247.464844v-17.066406c.027344-9.414063 7.652344-17.035157 17.066406-17.066407v-59.730469c0-4.714843 3.820313-8.535156 8.53125-8.535156h34.132813v-25.601562c.03125-9.414063 7.652344-17.035156 17.066406-17.066406h17.066407v-83.285157c-37.289063-12.203125-61.4375-40.53125-76.796876-74.238281h-.085937c-19.796875-43.179688-25.515625-94.976562-26.625-132.609375-.339844-9.554687-.339844-18.261719-.171875-25.683594-8.886719-.667969-15.765625-8.066406-15.785156-16.980469-.023438-4.527343 1.792968-8.871093 5.035156-12.035156 3.160156-3.238281 7.503906-5.058594 12.03125-5.03125h264.535156c6.894532-.007812 13.117188 4.136719 15.765625 10.503906 2.652344 6.367188 1.210938 13.703126-3.648437 18.59375zm0 0" fill="#e3e7f2"/><path d="m358.382812 486.398438v17.066406h-273.066406v-17.066406c.027344-9.414063 7.652344-17.035157 17.066406-17.066407h238.933594c9.425782 0 17.066406 7.640625 17.066406 17.066407zm0 0" fill="#e3e7f2"/><path d="m341.316406 409.601562v59.730469h-238.933594v-59.730469c0-4.714843 3.820313-8.535156 8.53125-8.535156h221.867188c4.714844 0 8.535156 3.820313 8.535156 8.535156zm0 0" fill="#a4c2f7"/><path d="m298.648438 375.464844v25.601562h-153.601563v-25.601562c.03125-9.414063 7.652344-17.035156 17.066406-17.066406h119.46875c9.425781 0 17.066407 7.640624 17.066407 17.066406zm0 0" fill="#e3e7f2"/><path d="m264.515625 275.113281v83.285157h-85.335937v-83.285157c13.785156 4.4375 28.191406 6.628907 42.667968 6.488281 14.480469.140626 28.886719-2.050781 42.667969-6.488281zm0 0" fill="#a4c2f7"/><path d="m383.980469 25.601562c.015625 4.507813-1.765625 8.835938-4.949219 12.03125-2.855469 2.957032-6.730469 4.726563-10.835938 4.949219-.421874.070313-.851562.097657-1.28125.085938h-290.132812c-.429688.011719-.855469-.015625-1.28125-.085938-8.886719-.667969-15.765625-8.066406-15.785156-16.980469-.023438-4.527343 1.792968-8.871093 5.035156-12.035156 3.160156-3.238281 7.503906-5.058594 12.03125-5.03125h290.132812c9.425782 0 17.066407 7.640625 17.066407 17.066406zm0 0" fill="#a4c2f7"/><path d="m358.382812 25.601562c.015626 4.507813-1.765624 8.835938-4.949218 12.03125-2.859375 2.957032-6.730469 4.726563-10.839844 4.949219-.421875.070313-.851562.097657-1.277344.085938h-264.535156c-.429688.011719-.855469-.015625-1.28125-.085938-8.886719-.667969-15.765625-8.066406-15.785156-16.980469-.023438-4.527343 1.792968-8.871093 5.035156-12.035156 3.160156-3.238281 7.503906-5.058594 12.03125-5.03125h264.535156c9.425782 0 17.066406 7.640625 17.066406 17.066406zm0 0" fill="#e3e7f2"/><path d="m499.933594 400.527344c-.480469 1.539062-.949219 3.074218-1.476563 4.609375-.949219 3.074219-2.074219 6.085937-3.3125 9.039062-.589843 1.472657-1.238281 2.890625-1.894531 4.375s-1.296875 2.894531-2.003906 4.308594c-1.066406 2.304687-2.246094 4.550781-3.480469 6.828125-.769531 1.417969-1.597656 2.832031-2.425781 4.265625-1.707032 2.902344-3.550782 5.796875-5.554688 8.535156-4.675781 6.804688-9.933594 13.1875-15.71875 19.078125-1.058594 1.066406-2.125 2.125-3.242187 3.191406h-43.367188l-29.53125-53.160156 29.53125-53.199218h59.078125zm0 0" fill="#e3e7f2"/><path d="m452.25 467.371094c-2.125 2.074218-4.3125 4.078125-6.554688 5.972656-.121093.109375-.179687.230469-.300781.289062-2.003906 1.707032-4.019531 3.414063-6.140625 4.90625-.484375.414063-1 .785157-1.539062 1.121094-2.125 1.652344-4.265625 3.191406-6.5625 4.667969-.316406.21875-.648438.417969-.996094.585937-1.730469 1.222657-3.523438 2.347657-5.375 3.371094-1.476562.949219-3.015625 1.777344-4.550781 2.5625-2.132813 1.125-4.265625 2.25-6.382813 3.25-1.773437.851563-3.480468 1.65625-5.316406 2.484375-2.722656 1.175781-5.496094 2.242188-8.269531 3.25-1.476563.589844-3.011719 1.058594-4.546875 1.535157-2.132813.707031-4.265625 1.355468-6.441406 1.945312-.125.074219-.265626.117188-.410157.121094l20.019531-36.097656zm0 0" fill="#a4c2f7"/><path d="m327.902344 496.894531c-.144532-.003906-.289063-.042969-.410156-.117187-2.1875-.589844-4.3125-1.246094-6.445313-1.953125-1.535156-.472657-3.070313-.941407-4.546875-1.539063-2.773438-.996094-5.546875-2.0625-8.269531-3.242187-1.832031-.851563-3.539063-1.59375-5.316407-2.484375-2.125-1.003906-4.265624-2.121094-6.382812-3.25-1.535156-.851563-3.070312-1.65625-4.546875-2.558594-1.851563-1.042969-3.644531-2.183594-5.375-3.414062-.34375-.175782-.679687-.375-1-.589844-2.253906-1.476563-4.4375-3.011719-6.5625-4.667969-.539063-.335937-1.054687-.710937-1.535156-1.125-2.125-1.535156-4.140625-3.183594-6.144531-4.898437-.121094-.058594-.179688-.179688-.296876-.296876-2.246093-1.886718-4.429687-3.902343-6.554687-5.976562h43.367187zm0 0" fill="#a4c2f7"/><path d="m328.839844 411.578125-29.535156 53.164063h-43.324219c-1.117188-1.066407-2.183594-2.125-3.242188-3.191407-5.78125-5.890625-11.042969-12.277343-15.71875-19.082031-2.003906-2.773438-3.839843-5.664062-5.554687-8.53125-.851563-1.417969-1.65625-2.832031-2.421875-4.265625-1.238281-2.246094-2.417969-4.488281-3.484375-6.828125-.707032-1.417969-1.355469-2.832031-2.003906-4.308594-.648438-1.476562-1.304688-2.902344-1.894532-4.378906-1.238281-2.953125-2.363281-5.972656-3.3125-9.035156-.527344-1.535156-.996094-3.074219-1.472656-4.609375l23.355469-42.113281h59.074219zm0 0" fill="#e3e7f2"/><path d="m240.230469 358.398438-23.398438 42.121093c-8.195312-27.480469-8.195312-56.75 0-84.230469zm0 0" fill="#a4c2f7"/><path d="m328.839844 305.246094-29.535156 53.152344h-59.074219l-23.398438-42.109376c7.246094-24.441406 20.738281-46.574218 39.148438-64.207031h43.367187zm0 0" fill="#e3e7f2"/><path d="m417.457031 358.410156-29.53125 53.167969h-59.085937l-29.535156-53.167969 29.535156-53.164062h59.085937zm0 0" fill="#a4c2f7"/><path d="m409.582031 464.742188-17.355469 36.097656c-.039062.042968-.097656.066406-.15625.058594-1.277343.410156-2.507812.769531-3.789062 1.058593-.078125.117188-.222656.164063-.355469.117188-1.28125.410156-2.5625.710937-3.894531 1.007812-.480469.167969-.976562.285157-1.484375.351563-1.382813.355468-2.816406.585937-4.199219.851562-3.921875.75-7.890625 1.261719-11.875 1.535156-.71875.0625-1.484375.121094-2.253906.121094-1.945312.121094-3.890625.179688-5.835938.179688-1.945312 0-3.890624-.058594-5.839843-.179688-.765625 0-1.535157-.058594-2.25-.121094-3.988281-.273437-7.953125-.785156-11.878907-1.535156-1.382812-.238281-2.816406-.46875-4.199218-.851562-.503906-.066406-1.003906-.183594-1.484375-.351563-1.332031-.296875-2.609375-.597656-3.890625-1.007812-.132813.046875-.28125 0-.359375-.117188-1.28125-.289062-2.507813-.648437-3.789063-1.058593-.058594.007812-.117187-.015626-.152344-.058594l-17.359374-36.097656 25.601562-53.164063h51.199219zm0 0" fill="#e3e7f2"/><path d="m499.933594 316.296875-23.398438 42.101563h-59.078125l-29.53125-53.160157 29.53125-53.164062h43.367188c18.398437 17.644531 31.878906 39.777343 39.109375 64.222656zm0 0" fill="#e3e7f2"/><path d="m452.25 256h-43.367188l-20.019531-36.097656c23.839844 6.480468 45.648438 18.898437 63.386719 36.097656zm0 0" fill="#a4c2f7"/><path d="m327.902344 219.902344-20.019532 36.097656h-43.367187c17.734375-17.199219 39.542969-29.617188 63.386719-36.097656zm0 0" fill="#a4c2f7"/><path d="m409.582031 252.082031-25.601562 53.164063h-51.199219l-25.601562-53.164063 17.359374-36.09375c22.015626-7.011719 45.667969-7.011719 67.6875 0zm0 0" fill="#e3e7f2"/><path d="m506.078125 358.398438c.019531 14.265624-2.050781 28.457031-6.144531 42.121093l-23.398438-42.121093 23.398438-42.109376c4.09375 13.660157 6.164062 27.847657 6.144531 42.109376zm0 0" fill="#a4c2f7"/><g fill="#fff"><path d="m334.378906 503.464844c1.328125.335937 2.703125.574218 4.035156.796875 3.925782.746093 7.890626 1.261719 11.878907 1.535156.714843.058594 1.484375.117187 2.25.117187 1.949219.121094 3.894531.179688 5.839843.179688 1.945313 0 3.890626-.058594 5.835938-.179688.769531 0 1.535156-.058593 2.253906-.117187 1.585938-.121094 3.128906-.425781 4.707032-.605469-2.394532-.273437-4.820313-.46875-7.167969-.929687-1.328125-.222657-2.703125-.460938-4.035157-.796875zm0 0"/><path d="m110.914062 503.464844v-17.066406c.027344-9.414063 7.652344-17.035157 17.066407-17.066407v-59.730469c0-4.714843 3.820312-8.535156 8.535156-8.535156h-25.601563c-4.710937 0-8.53125 3.820313-8.53125 8.535156v59.730469c-9.414062.03125-17.039062 7.652344-17.066406 17.066407v17.066406zm0 0"/><path d="m75.671875 68.265625c1.109375 37.632813 6.828125 89.429687 26.625 132.609375h.085937c15.359376 33.707031 39.507813 62.035156 76.796876 74.238281v83.285157h-17.066407c-9.414062.03125-17.035156 7.652343-17.066406 17.066406v25.601562h25.601563v-25.601562c.027343-9.414063 7.652343-17.035156 17.066406-17.066406h17.066406v-83.285157c-37.289062-12.203125-61.441406-40.53125-76.800781-74.238281h-.085938c-19.796875-43.179688-25.511719-94.976562-26.621093-132.609375-.34375-9.554687-.34375-18.261719-.171876-25.683594-8.890624-.667969-15.765624-8.066406-15.785156-16.980469-.027344-4.527343 1.792969-8.871093 5.03125-12.035156 3.164063-3.238281 7.507813-5.058594 12.035156-5.03125h-25.601562c-4.527344-.027344-8.871094 1.792969-12.03125 5.03125-3.242188 3.164063-5.058594 7.507813-5.035156 12.035156.019531 8.914063 6.898437 16.3125 15.785156 16.980469-.167969 7.421875-.167969 16.128907.171875 25.683594zm0 0"/><path d="m361.921875 210.867188c-.417969.785156-.765625 1.605468-1.195313 2.378906 3.414063-.730469 6.9375-1.277344 10.464844-1.703125-3.0625-.34375-6.152344-.566407-9.269531-.675781zm0 0"/><path d="m85.316406 494.933594h273.066406v17.066406h-273.066406zm0 0"/></g><path d="m150.339844 511.316406c3.183594 1.289063 6.824218.585938 9.300781-1.792968.769531-.8125 1.378906-1.769532 1.792969-2.8125.4375-1.027344.667968-2.128907.679687-3.246094.023438-3.464844-2.058593-6.597656-5.257812-7.929688-3.203125-1.328125-6.890625-.589844-9.332031 1.871094l-1.023438 1.28125c-.324219.476562-.582031.992188-.769531 1.535156-.246094.484375-.417969 1.003906-.511719 1.539063-.09375.5625-.152344 1.132812-.171875 1.703125.035156 2.261718.917969 4.425781 2.476563 6.058594.816406.773437 1.769531 1.382812 2.816406 1.792968zm0 0" fill="#428dff"/><path d="m122.863281 118.179688c-.460937-3.015626-2.488281-5.558594-5.328125-6.671876-2.839844-1.109374-6.058594-.621093-8.441406 1.28125-2.382812 1.902344-3.570312 4.933594-3.109375 7.949219 7.386719 48.417969 22.457031 84.480469 44.789063 107.28125 3.3125 3.285157 8.652343 3.296875 11.980468.03125 3.332032-3.265625 3.425782-8.601562.207032-11.976562-19.816407-20.148438-33.273438-53.085938-40.097657-97.894531zm0 0" fill="#428dff"/><path d="m111.257812 93.867188c2.257813-.15625 4.363282-1.203126 5.847657-2.910157 1.488281-1.707031 2.234375-3.9375 2.078125-6.195312-.195313-2.851563-.359375-5.648438-.503906-8.378907-.152344-3.050781-1.917969-5.785156-4.636719-7.175781-2.714844-1.394531-5.96875-1.230469-8.53125.425781-2.566407 1.65625-4.050781 4.554688-3.898438 7.601563.144531 2.824219.316407 5.726563.519531 8.6875.3125 4.480469 4.042969 7.957031 8.535157 7.945313zm0 0" fill="#428dff"/><path d="m387.734375 207.683594c-.238281-.058594-.476563-.058594-.714844-.101563-9.4375-1.824219-19.027343-2.757812-28.636719-2.78125-.417968 0-.855468.058594-1.238281.058594l47.589844-14.992187c7.890625-2.714844 13.894531-9.199219 15.992187-17.273438l22.023438-79.988281c2.222656-8.128907.5625-16.828125-4.488281-23.570313-4.316407-5.808594-11.109375-9.253906-18.347657-9.300781h-43.132812c.039062-3.695313.050781-7.175781 0-10.523437 11.238281-4.707032 17.601562-16.691407 15.207031-28.640626-2.394531-11.953124-12.882812-20.5585932-25.074219-20.570312h-290.132812c-12.1875.0078125-22.679688 8.601562-25.082031 20.550781-2.40625 11.949219 3.945312 23.933594 15.183593 28.652344 0 3.320313 0 6.828125.050782 10.53125h-43.136719c-7.234375.046875-14.023437 3.492187-18.335937 9.300781-5.070313 6.746094-6.722657 15.460938-4.480469 23.59375l22.042969 79.976563c2.113281 8.097656 8.152343 14.589843 16.074218 17.285156l57.285156 18.050781c14.273438 33.128906 40.921876 59.375 74.265626 73.136719v68.789063h-8.535157c-14.136719 0-25.597656 11.460937-25.597656 25.597656v17.070312h-25.601563c-9.425781 0-17.066406 7.640625-17.066406 17.066406v52.769532c-10.191406 3.601562-17.019531 13.21875-17.066406 24.027344v17.066406c0 4.714844 3.820312 8.535156 8.535156 8.535156h34.132813c4.710937 0 8.53125-3.820312 8.53125-8.535156 0-4.710938-3.820313-8.53125-8.53125-8.53125h-25.601563v-8.535156c0-4.710938 3.820313-8.53125 8.535156-8.53125h159.664063c8.160156 6.566406 16.96875 12.285156 26.285156 17.066406h-100.617187c-4.710938 0-8.535156 3.820312-8.535156 8.53125 0 4.714844 3.824218 8.535156 8.535156 8.535156h170.667968c9.128907-.039062 18.234376-.894531 27.210938-2.558594.800781-.007812 1.597656-.128906 2.363281-.359375 72.09375-14.121093 124.082031-77.328125 124.027344-150.789062-.054687-73.464844-52.136719-136.59375-124.25-150.609375zm107.179687 150.714844c-.050781 6.863281-.621093 13.707031-1.707031 20.480468l-13.652343-20.480468 13.652343-20.476563c1.085938 6.773437 1.65625 13.617187 1.707031 20.476563zm-37.640624 93.867187h-41.214844l-18.089844-42.179687 23.96875-43.152344h42.804688l23.039062 34.621094c-6.34375 18.929687-16.757812 36.238281-30.507812 50.710937zm-41.972657 17.066406h22.371094c-10.210937 7.3125-21.390625 13.175781-33.210937 17.425781zm-31.847656-68.265625h-50.140625l-23.707031-42.667968 23.707031-42.664063h50.140625l23.703125 42.664063zm-81.988281 68.265625 10.835937 17.425781c-11.820312-4.25-22.996093-10.113281-33.210937-17.425781zm-.761719-17.066406h-41.214844c-13.761719-14.46875-24.1875-31.78125-30.539062-50.710937l23.074219-34.621094h42.800781l23.972656 43.152344zm1.648437-204.800781h-23.261718c10.398437-7.445313 21.796875-13.390625 33.851562-17.664063zm-42.863281 17.070312h41.523438l17.800781 42.152344-23.988281 43.179688h-42.800781l-23.042969-34.621094c6.34375-18.929688 16.757812-36.238282 30.507812-50.710938zm-37.640625 93.863282c.054688-6.859376.625-13.703126 1.707032-20.476563l13.652343 20.476563-13.652343 20.480468c-1.082032-6.773437-1.652344-13.617187-1.707032-20.480468zm242.894532-8.53125h-42.804688l-23.976562-43.164063 18.019531-42.167969h41.292969c13.765624 14.46875 24.1875 31.777344 30.542968 50.710938zm-50.101563-102.402344-10.675781-17.601563c12.003906 4.261719 23.351562 10.1875 33.707031 17.601563zm-34.304687-23.660156 20.234374 33.363281-17.730468 41.5h-48.890625l-17.515625-41.5 20.015625-33.371094c14.515625-2.578125 29.375-2.578125 43.886719 0zm39.578124-147.003907c1.917969.074219 3.6875 1.039063 4.789063 2.609375 1.84375 2.496094 2.425781 5.703125 1.578125 8.6875l-22.015625 79.949219c-.5625 2.527344-2.339844 4.613281-4.746094 5.574219l-43.390625 13.652344c12.136719-35.625 18.917969-72.855469 20.121094-110.472657zm-343.132812-59.734375h290.132812c4.714844 0 8.535157 3.820313 8.535157 8.535156 0 4.710938-3.820313 8.53125-8.535157 8.53125h-290.132812c-4.710938 0-8.53125-3.820312-8.53125-8.53125 0-4.714843 3.820312-8.535156 8.53125-8.535156zm-32.496094 156.585938c-2.441406-.945313-4.253906-3.042969-4.835937-5.597656l-22.007813-79.921876c-.851562-2.992187-.273437-6.214843 1.570313-8.722656 1.101562-1.570312 2.871093-2.535156 4.785156-2.609375h43.65625c1.269531 37.636719 8.089844 74.878907 20.242187 110.523438zm39.910156-105.308594v-.195312c-.195312-6.058594-.253906-11.71875-.238281-16.949219h275.789063c0 5.25 0 10.921875-.222656 16.964843v.1875c-1.226563 40.378907-7.804688 96.121094-31.222657 139.453126-39.746093 7.988281-74.730469 31.335937-97.363281 64.972656-2.824219.167968-5.785156.289062-9.082031.289062-13.152344.125-26.246094-1.785156-38.816407-5.664062-80.820312-25.464844-96.800781-133.515625-98.84375-199.058594zm103.519532 218.019531c10.917968 2.492188 22.082031 3.757813 33.28125 3.769531-9.292969 18.621094-14.667969 38.953126-15.789063 59.734376h-17.492187zm-34.132813 89.101563c0-4.710938 3.820313-8.53125 8.53125-8.53125h43.101563c.449218 8.617187 1.628906 17.179687 3.527344 25.601562h-55.160157zm-42.667969 34.136718h102.828126c6.71875 18.890626 17.074218 36.285157 30.480468 51.199219h-133.308594zm225.367188 83.378907-20.402344-32.785157 18.039063-42.0625h48.929687l18.039063 42.0625-20.402344 32.785157c-14.621094 2.605469-29.585937 2.605469-44.203125 0zm0 0" fill="#428dff"/></svg>