<svg height="512pt" viewBox="0 0 512.0003 512" width="512pt" xmlns="http://www.w3.org/2000/svg"><path d="m57.601562 398.59375c-3.441406 1.136719-7.042968 1.714844-10.667968 1.707031-1.425782 0-2.851563-.085937-4.265625-.257812v-11.347657c3.996093 4.578126 9.15625 8 14.933593 9.898438zm0 0" fill="#a4c2f7"/><path d="m57.601562 333.738281c-5.777343 1.898438-10.9375 5.320313-14.933593 9.898438v-11.347657c1.414062-.171874 2.839843-.257812 4.265625-.257812 3.625-.007812 7.226562.566406 10.667968 1.707031zm0 0" fill="#a4c2f7"/><path d="m187.734375 316.84375v99.839844c.003906 16.492187-9.5 31.511718-24.40625 38.570312l-9.8125 4.609375c-.082031-3.609375-.746094-7.183593-1.964844-10.582031 0-.085938-.082031-.085938-.082031-.171875 9.480469-8.101563 14.9375-19.953125 14.929688-32.425781v-99.839844c-.011719-12.425781-5.433594-24.230469-14.847657-32.34375.078125-.324219.191407-.640625.34375-.9375.289063-.683594.488281-1.398438.597657-2.132812.179687-.585938.324218-1.1875.425781-1.792969.167969-.40625.253906-.839844.253906-1.277344.105469-.449219.164063-.90625.171875-1.367187.171875-1.128907.257812-2.269532.257812-3.414063l10.066407 4.863281c14.71875 7.132813 24.066406 22.046875 24.066406 38.402344zm0 0" fill="#a4c2f7"/><path d="m166.398438 316.84375v99.839844c.007812 12.472656-5.449219 24.324218-14.929688 32.425781-4.855469-13.464844-17.59375-22.472656-31.90625-22.558594-14.316406-.085937-27.164062 8.765625-32.175781 22.171875-5.015625 13.40625-1.132813 28.519532 9.722656 37.847656l-28.929687 13.652344c-5.867188 4.621094-14.21875 4.296875-19.710938-.765625-3.761719-3.285156-5.886719-8.0625-5.800781-13.058593v-86.355469c1.414062.171875 2.839843.257812 4.265625.257812 3.625.007813 7.226562-.570312 10.667968-1.707031 3.4375 1.136719 7.039063 1.714844 10.664063 1.707031 18.851563 0 34.132813-15.285156 34.132813-34.136719 0-18.851562-15.28125-34.132812-34.132813-34.132812-3.625-.007812-7.226563.566406-10.664063 1.707031-3.441406-1.140625-7.042968-1.714843-10.667968-1.707031-1.425782 0-2.851563.085938-4.265625.257812v-86.359374c-.085938-4.992188 2.039062-9.769532 5.800781-13.054688 5.492188-5.0625 13.84375-5.386719 19.710938-.769531l29.78125 14.421875c-1.109376.929687-2.164063 1.929687-3.15625 2.988281-.835938.820313-1.605469 1.703125-2.304688 2.644531l-.765625 1.023438c-.617187.851562-1.1875 1.734375-1.707031 2.644531-.597656.953125-1.109375 1.949219-1.535156 2.988281-.5.964844-.925782 1.960938-1.28125 2.988282-.265626.753906-.496094 1.523437-.683594 2.300781-.355469 1.136719-.585938 2.3125-.683594 3.5-.339844 1.800781-.511719 3.628906-.511719 5.460937-.011719 14.699219 9.417969 27.746094 23.382813 32.339844 3.457031 1.203125 7.09375 1.808594 10.753906 1.792969 1.191406 0 2.300781-.085938 3.496094-.167969 1.09375-.082031 2.179687-.253906 3.242187-.515625h.171875c.839844-.175781 1.664063-.402344 2.472656-.679687 4.257813-1.191407 8.234376-3.222657 11.691407-5.972657.691406-.496093 1.347656-1.035156 1.964843-1.625 1.359376-1.257812 2.617188-2.628906 3.753907-4.09375.566406-.640625 1.078125-1.324219 1.535156-2.046875.507813-.660156.9375-1.378906 1.28125-2.136718.105469-.09375.191406-.210938.253906-.339844.347657-.609375.660157-1.234375.941407-1.875.363281-.777344.675781-1.574219.9375-2.390625.085937-.257813.257812-.597657.339843-.855469 9.414063 8.113281 14.835938 19.917969 14.847657 32.34375zm0 0" fill="#e3e7f2"/><path d="m42.667969 263.765625v204.800781l-20.480469 15.359375c-2.585938 1.9375-6.046875 2.25-8.9375.804688-2.890625-1.445313-4.714844-4.398438-4.714844-7.632813v-221.867187c0-3.230469 1.824219-6.183594 4.714844-7.628907 2.890625-1.449218 6.351562-1.136718 8.9375.804688l16.210938 12.203125zm0 0" fill="#e3e7f2"/><path d="m38.398438 260.609375v186.621094l-20.476563 15.363281c-2.734375 2.0625-6.445313 2.265625-9.386719.511719v-207.875c0-3.230469 1.824219-6.183594 4.714844-7.628907 2.890625-1.449218 6.351562-1.136718 8.9375.804688zm0 0" fill="#e3e7f2"/><path d="m469.332031 245.929688v97.707031c-5.5-6.242188-13.082031-10.273438-21.332031-11.347657v-86.359374c.082031-4.992188-2.039062-9.769532-5.800781-13.054688l1.621093-.769531c5.003907-3.667969 11.675782-4.121094 17.132813-1.164063 5.457031 2.957032 8.71875 8.792969 8.378906 14.988282zm0 0" fill="#a4c2f7"/><path d="m469.332031 388.695312v97.703126c.320313 6.191406-2.949219 12.007812-8.394531 14.960937-5.449219 2.953125-12.109375 2.511719-17.117188-1.136719l-1.621093-.765625c3.761719-3.285156 5.882812-8.0625 5.800781-13.058593v-86.355469c8.25-1.074219 15.832031-5.105469 21.332031-11.347657zm0 0" fill="#a4c2f7"/><path d="m409.601562 366.164062c-.003906 14.742188 9.460938 27.820313 23.464844 32.429688 3.441406 1.136719 7.042969 1.714844 10.667969 1.707031 1.425781 0 2.851563-.085937 4.265625-.257812v86.355469c.082031 4.996093-2.039062 9.773437-5.800781 13.058593l-27.308594-12.886719c10.75-9.335937 14.574219-24.367187 9.597656-37.707031-4.980469-13.339843-17.714843-22.1875-31.953125-22.195312-3.652344-.003907-7.28125.574219-10.753906 1.707031-13.628906 4.53125-22.945312 17.128906-23.296875 31.488281l-9.8125-4.609375c-3.4375-1.582031-6.628906-3.652344-9.472656-6.144531-9.484375-8.101563-14.941407-19.953125-14.933594-32.425781v-99.839844c.015625-12.425781 5.4375-24.230469 14.847656-32.34375 2.792969-2.414062 5.890625-4.453125 9.21875-6.058594l10.066407-4.863281c.195312 14.5625 9.625 27.390625 23.46875 31.914063 3.441406 1.140624 7.042968 1.71875 10.667968 1.707031 14.46875.015625 27.375-9.089844 32.207032-22.730469 4.835937-13.636719.546874-28.839844-10.703126-37.941406l28.160157-13.652344c3.761719 3.285156 5.882812 8.0625 5.800781 13.054688v86.359374c-1.414062-.171874-2.839844-.257812-4.265625-.257812-3.625-.007812-7.226563.566406-10.667969 1.707031-14.003906 4.609375-23.46875 17.683594-23.464844 32.425781zm0 0" fill="#e3e7f2"/><path d="m448 332.289062v11.347657c-4-4.578125-9.15625-8-14.933594-9.898438 3.441406-1.140625 7.042969-1.714843 10.667969-1.707031 1.425781 0 2.851563.085938 4.265625.257812zm0 0" fill="#a4c2f7"/><path d="m448 388.695312v11.347657c-1.414062.171875-2.839844.257812-4.265625.257812-3.625.007813-7.226563-.570312-10.667969-1.707031 5.777344-1.898438 10.933594-5.320312 14.933594-9.898438zm0 0" fill="#a4c2f7"/><path d="m489.8125 483.910156-20.480469-15.363281v-204.796875l20.480469-15.363281c2.585938-1.9375 6.046875-2.25 8.9375-.804688 2.890625 1.445313 4.71875 4.402344 4.71875 7.632813v221.867187c0 3.230469-1.828125 6.1875-4.71875 7.632813-2.890625 1.445312-6.351562 1.132812-8.9375-.804688zm0 0" fill="#e3e7f2"/><path d="m489.8125 458.324219-20.480469-13.738281v-182.679688l20.480469-13.707031c2.5-1.800781 5.769531-2.136719 8.582031-.882813 2.8125 1.257813 4.746094 3.914063 5.074219 6.976563v197.972656c-.339844 3.058594-2.277344 5.707031-5.085938 6.953125-2.8125 1.246094-6.074218.90625-8.570312-.894531zm0 0" fill="#e3e7f2"/><path d="m102.398438 366.164062c-.019532 14.1875-8.8125 26.882813-22.085938 31.890626-13.273438 5.003906-28.261719 1.277343-37.644531-9.359376v-45.058593c9.382812-10.640625 24.371093-14.367188 37.644531-9.359375 13.273438 5.007812 22.066406 17.703125 22.085938 31.886718zm0 0" fill="#e3e7f2"/><path d="m469.332031 343.636719v45.058593c-9.375 10.671876-24.382812 14.421876-37.679687 9.410157-13.292969-5.011719-22.09375-17.730469-22.09375-31.941407 0-14.207031 8.800781-26.929687 22.09375-31.9375 13.296875-5.011718 28.304687-1.261718 37.679687 9.410157zm0 0" fill="#a4c2f7"/><path d="m448 335.105469v62.121093c-3.925781 4.523438-9.046875-.597656-14.933594 1.367188-14.007812-4.605469-23.476562-17.683594-23.476562-32.429688 0-14.742187 9.46875-27.820312 23.476562-32.425781 5.886719 1.964844 11.007813-3.15625 14.933594 1.367188zm0 0" fill="#e3e7f2"/><path d="m366.933594 119.46875c0 61.265625-49.667969 110.929688-110.933594 110.929688-20.292969.042968-40.203125-5.539063-57.515625-16.125-.085937-.085938-.085937-.085938-.167969-.085938-49.171875-29.910156-67.300781-92.457031-41.75-144.027344 25.554688-51.566406 86.296875-75.03125 139.882813-54.03125.085937 0 .085937 0 .167969.085938 42.433593 16.695312 70.324218 57.652344 70.316406 103.253906zm0 0" fill="#a4c2f7"/><path d="m345.601562 110.933594c-.03125 36.65625-18.15625 70.9375-48.429687 91.601562-30.277344 20.667969-68.804687 25.058594-102.953125 11.738282-.085938-.085938-.085938-.085938-.171875-.085938-49.167969-29.910156-67.296875-92.457031-41.746094-144.027344 25.550781-51.566406 86.296875-75.03125 139.878907-54.03125.085937 0 .085937 0 .171874.085938 33.074219 20.105468 53.257813 56.011718 53.25 94.71875zm0 0" fill="#e3e7f2"/><path d="m151.550781 449.28125c-4.796875-13.5-17.515625-22.566406-31.839843-22.699219-14.328126-.136719-27.210938 8.691407-32.261719 22.097657s-1.191407 28.539062 9.660156 37.890624l56.40625-26.707031c-.082031-3.609375-.746094-7.183593-1.964844-10.582031zm0 0" fill="#e3e7f2"/><path d="m97.960938 246.527344c-1.109376.929687-2.164063 1.929687-3.15625 2.988281-.835938.820313-1.605469 1.703125-2.304688 2.644531l-.765625 1.023438c-.617187.851562-1.1875 1.734375-1.707031 2.644531-.597656.953125-1.109375 1.949219-1.535156 2.988281-.5.964844-.925782 1.960938-1.28125 2.988282-.265626.753906-.496094 1.523437-.683594 2.300781-.355469 1.136719-.585938 2.3125-.683594 3.5-.339844 1.800781-.511719 3.628906-.511719 5.460937 0 18.851563 15.285157 34.132813 34.136719 34.132813 1.191406 0 2.300781-.085938 3.496094-.167969 1.09375-.082031 2.179687-.253906 3.242187-.515625h.171875c.839844-.175781 1.664063-.402344 2.472656-.679687 4.257813-1.191407 8.234376-3.222657 11.691407-5.972657.691406-.496093 1.347656-1.035156 1.964843-1.625 1.359376-1.257812 2.617188-2.628906 3.753907-4.09375.566406-.640625 1.078125-1.324219 1.535156-2.046875.507813-.660156.9375-1.378906 1.28125-2.136718.105469-.09375.191406-.210938.253906-.339844.347657-.609375.660157-1.234375.941407-1.875.363281-.777344.675781-1.574219.9375-2.390625.257812-.597657.425781-1.195313.683593-1.792969.289063-.683594.488281-1.398438.597657-2.132812.179687-.585938.324218-1.1875.425781-1.792969.167969-.40625.253906-.839844.253906-1.277344.105469-.449219.164063-.90625.171875-1.367187.171875-1.128907.257812-2.269532.257812-3.414063zm0 0" fill="#e3e7f2"/><path d="m151.894531 283.5625c-.160156.609375-.359375 1.207031-.597656 1.792969h-.085937c.257812-.597657.425781-1.195313.683593-1.792969zm0 0" fill="#e57e25"/><path d="m426.667969 460.800781c.039062 9.898438-4.265625 19.320313-11.777344 25.769531l-56.40625-26.707031c1.125-18.179687 16.328125-32.273437 34.539063-32.023437 18.210937.25 33.019531 14.757812 33.644531 32.960937zm0 0" fill="#e3e7f2"/><path d="m426.667969 273.066406c.140625 18.851563-15.027344 34.25-33.878907 34.390625-18.851562.140625-34.246093-15.027343-34.390624-33.878906l55.640624-27.050781c8.003907 6.484375 12.644532 16.238281 12.628907 26.539062zm0 0" fill="#e3e7f2"/><path d="m204.800781 307.199219h102.398438c9.425781 0 17.066406 7.640625 17.066406 17.066406v85.335937c0 9.425782-7.640625 17.066407-17.066406 17.066407h-102.398438c-9.425781 0-17.066406-7.640625-17.066406-17.066407v-85.335937c0-9.425781 7.640625-17.066406 17.066406-17.066406zm0 0" fill="#e3e7f2"/><path d="m22.1875 483.925781 11.945312-8.960937v-217.597656l-11.945312-8.960938c-2.585938-1.941406-6.046875-2.253906-8.9375-.804688-2.890625 1.445313-4.714844 4.398438-4.714844 7.628907v221.867187c0 3.234375 1.824219 6.1875 4.714844 7.632813 2.890625 1.445312 6.351562 1.132812 8.9375-.804688zm0 0" fill="#fff"/><path d="m253.933594 8.636719c-.742188 0-1.457032-.101563-2.199219-.101563-49.707031.023438-93.328125 33.113282-106.753906 80.972656-13.425781 47.859376 6.625 98.804688 49.066406 124.679688.085937 0 .085937 0 .171875.085938 3.335938 1.296874 6.765625 2.414062 10.238281 3.410156 19.71875 10.460937 42.167969 14.632812 64.324219 11.949218-13.535156-1.542968-26.667969-5.59375-38.722656-11.949218-3.480469-.980469-6.910156-2.097656-10.238282-3.410156-.085937-.085938-.085937-.085938-.171874-.085938-40.757813-24.863281-61.035157-73.015625-50.34375-119.542969 10.691406-46.53125 49.953124-81 97.472656-85.582031-3.550782-.339844-7.140625-.527344-10.777344-.527344-.699219 0-1.375.09375-2.066406.101563zm0 0" fill="#fff"/><path d="m307.199219 435.199219h-102.398438c-14.140625 0-25.601562-11.460938-25.601562-25.597657v-85.335937c0-14.136719 11.460937-25.597656 25.601562-25.597656h102.398438c14.140625 0 25.601562 11.460937 25.601562 25.597656v85.335937c0 14.136719-11.460937 25.597657-25.601562 25.597657zm-102.398438-119.464844c-4.714843 0-8.535156 3.820313-8.535156 8.53125v85.335937c0 4.710938 3.820313 8.53125 8.535156 8.53125h102.398438c4.714843 0 8.535156-3.820312 8.535156-8.53125v-85.335937c0-4.710937-3.820313-8.53125-8.535156-8.53125zm0 0" fill="#428dff"/><path d="m58.804688 512c-3.679688-.007812-7.308594-.859375-10.609376-2.492188-8.730468-4.371093-14.191406-13.347656-14.0625-23.109374v-240.46875c-.125-9.796876 5.375-18.800782 14.148438-23.167969 7.863281-3.867188 17.21875-3.09375 24.335938 2.015625l94.722656 45.976562c17.628906 8.605469 28.84375 26.472656 28.925781 46.089844v99.839844c-.035156 19.785156-11.433594 37.792968-29.300781 46.292968l-94.429688 44.621094c-4.015625 2.847656-8.8125 4.382813-13.730468 4.402344zm0-274.628906c-1.058594.011718-2.101563.261718-3.046876.734375-2.910156 1.503906-4.683593 4.554687-4.558593 7.824219v240.46875c-.121094 3.261718 1.65625 6.300781 4.558593 7.792968 2.34375 1.222656 5.1875.929688 7.234376-.742187.480468-.367188 1-.683594 1.546874-.9375l95.164063-44.980469c11.898437-5.667969 19.484375-17.667969 19.496094-30.847656v-99.839844c-.058594-13.070312-7.519531-24.976562-19.257813-30.722656l-95.472656-46.335938c-.535156-.253906-1.039062-.566406-1.507812-.929687-1.15625-.941407-2.589844-1.472657-4.082032-1.5zm0 0" fill="#428dff"/><path d="m17.066406 494.164062c-2.664062 0-5.296875-.621093-7.679687-1.816406-5.773438-2.890625-9.4101565-8.808594-9.386719-15.265625v-221.867187c0-6.464844 3.652344-12.375 9.433594-15.265625s12.703125-2.265625 17.875 1.613281l20.476562 15.359375c2.148438 1.613281 3.414063 4.140625 3.414063 6.828125v204.796875c0 2.6875-1.265625 5.214844-3.414063 6.828125l-20.476562 15.359375c-2.949219 2.226563-6.546875 3.433594-10.242188 3.429687zm0-238.949218v221.867187l17.066406-12.800781v-196.265625zm0 0" fill="#428dff"/><path d="m453.195312 512c-4.925781-.007812-9.730468-1.539062-13.753906-4.386719l-94.386718-44.636719c-17.878907-8.492187-29.28125-26.503906-29.320313-46.292968v-99.839844c.074219-19.601562 11.269531-37.464844 28.875-46.082031l94.773437-45.984375c7.117188-5.117188 16.476563-5.894532 24.335938-2.015625 8.773438 4.367187 14.273438 13.371093 14.148438 23.167969v240.46875c.121093 9.757812-5.339844 18.726562-14.0625 23.09375-3.296876 1.636718-6.925782 2.496093-10.609376 2.507812zm-.074218-274.644531c-1.503906.019531-2.953125.550781-4.113282 1.5-.46875.363281-.976562.675781-1.511718.929687l-95.488282 46.335938c-11.71875 5.761718-19.160156 17.664062-19.207031 30.722656v99.839844c.011719 13.183594 7.605469 25.1875 19.515625 30.847656l95.144532 44.980469c.546874.253906 1.066406.570312 1.546874.9375 2.046876 1.671875 4.890626 1.964843 7.234376.742187 2.902343-1.492187 4.679687-4.53125 4.558593-7.792968v-240.46875c.125-3.285157-1.667969-6.347657-4.601562-7.839844-.957031-.480469-2.007813-.730469-3.078125-.734375zm0 0" fill="#428dff"/><path d="m494.933594 494.164062c-3.695313.007813-7.289063-1.191406-10.238282-3.410156l-20.480468-15.363281c-2.148438-1.609375-3.414063-4.140625-3.414063-6.824219v-204.800781c0-2.6875 1.265625-5.214844 3.414063-6.828125l20.480468-15.359375c5.167969-3.878906 12.089844-4.5 17.871094-1.609375s9.433594 8.800781 9.433594 15.261719v221.867187c.027344 6.464844-3.609375 12.382813-9.386719 15.277344-2.386719 1.183594-5.015625 1.796875-7.679687 1.789062zm0-17.066406h.050781l-.050781-221.867187-17.066406 12.800781v196.269531zm0 0" fill="#428dff"/><path d="m187.734375 375.46875h-51.199219c-4.714844 0-8.535156-3.824219-8.535156-8.535156 0-4.714844 3.820312-8.535156 8.535156-8.535156h51.199219c4.710937 0 8.53125 3.820312 8.53125 8.535156 0 4.710937-3.820313 8.535156-8.53125 8.535156zm0 0" fill="#428dff"/><path d="m162.132812 401.066406c-3.449218 0-6.5625-2.078125-7.882812-5.269531-1.320312-3.1875-.589844-6.855469 1.851562-9.296875l19.566407-19.566406-19.566407-19.566406c-3.234374-3.347657-3.1875-8.671876.101563-11.960938 3.292969-3.292969 8.613281-3.339844 11.964844-.105469l25.597656 25.601563c3.332031 3.332031 3.332031 8.730468 0 12.0625l-25.597656 25.601562c-1.601563 1.601563-3.773438 2.5-6.035157 2.5zm0 0" fill="#428dff"/><path d="m281.601562 349.867188h-51.203124c-4.710938 0-8.53125-3.820313-8.53125-8.535157 0-4.710937 3.820312-8.53125 8.53125-8.53125h51.203124c4.710938 0 8.53125 3.820313 8.53125 8.53125 0 4.714844-3.820312 8.535157-8.53125 8.535157zm0 0" fill="#428dff"/><path d="m281.601562 401.066406h-51.203124c-4.710938 0-8.53125-3.820312-8.53125-8.53125 0-4.714844 3.820312-8.535156 8.53125-8.535156h51.203124c4.710938 0 8.53125 3.820312 8.53125 8.535156 0 4.710938-3.820312 8.53125-8.53125 8.53125zm0 0" fill="#428dff"/><path d="m68.265625 408.816406c-12.257813-.015625-23.917969-5.300781-32.007813-14.507812-2.914062-3.554688-2.488281-8.777344.960938-11.816406 3.449219-3.035157 8.683594-2.796876 11.839844.542968 7.03125 8.011719 18.289062 10.828125 28.261718 7.070313 9.972657-3.757813 16.578126-13.300781 16.578126-23.957031s-6.605469-20.199219-16.578126-23.957032c-9.972656-3.757812-21.230468-.941406-28.261718 7.070313-3.144532 3.398437-8.429688 3.667969-11.90625.605469-3.476563-3.0625-3.871094-8.339844-.894532-11.886719 12.976563-14.765625 34.363282-18.75 51.789063-9.65625s26.382813 28.917969 21.691406 48.003906c-4.691406 19.089844-21.816406 32.503906-41.472656 32.488281zm0 0" fill="#428dff"/><path d="m375.46875 375.46875h-51.203125c-4.710937 0-8.53125-3.824219-8.53125-8.535156 0-4.714844 3.820313-8.535156 8.53125-8.535156h51.203125c4.710938 0 8.53125 3.820312 8.53125 8.535156 0 4.710937-3.820312 8.535156-8.53125 8.535156zm0 0" fill="#428dff"/><path d="m349.867188 401.066406c-2.261719 0-4.433594-.898437-6.035157-2.5l-25.597656-25.601562c-3.332031-3.332032-3.332031-8.730469 0-12.0625l25.597656-25.601563c3.351563-3.234375 8.671875-3.1875 11.964844.105469 3.289063 3.289062 3.335937 8.613281.101563 11.960938l-19.566407 19.566406 19.566407 19.566406c2.441406 2.441406 3.171874 6.109375 1.851562 9.296875-1.320312 3.191406-4.433594 5.269531-7.882812 5.269531zm0 0" fill="#428dff"/><path d="m443.734375 408.816406c-19.660156.019532-36.789063-13.394531-41.480469-32.484375-4.691406-19.089843 4.269532-38.917969 21.699219-48.011719 17.425781-9.09375 38.8125-5.101562 51.789063 9.667969 2.976562 3.546875 2.582031 8.824219-.894532 11.886719-3.476562 3.066406-8.757812 2.796875-11.90625-.605469-7.03125-8.011719-18.289062-10.828125-28.261718-7.070312-9.972657 3.757812-16.578126 13.300781-16.578126 23.957031 0 10.660156 6.605469 20.203125 16.578126 23.957031 9.972656 3.757813 21.230468.941407 28.261718-7.070312 3.15625-3.339844 8.394532-3.578125 11.839844-.539063 3.449219 3.035156 3.875 8.257813.960938 11.8125-8.09375 9.207032-19.753907 14.488282-32.007813 14.5zm0 0" fill="#428dff"/><path d="m256 238.933594c-20.003906-.148438-39.667969-5.171875-57.292969-14.632813-17.5-9.683593-32.332031-23.546875-43.179687-40.347656-23.511719-36.761719-25.125-83.414063-4.207032-121.710937 20.917969-38.296876 61.042969-62.1562505 104.679688-62.242188v17.066406c-37.4375-.015625-71.894531 20.414063-89.84375 53.269532-17.949219 32.855468-16.519531 72.890624 3.726562 104.382812 9.308594 14.402344 22.023438 26.292969 37.015626 34.613281 15.113281 8.089844 31.960937 12.390625 49.101562 12.535157zm0 0" fill="#fff"/><g fill="#428dff"><path d="m214.382812 222.25c-.832031 2.1875-.722656 4.621094.308594 6.726562 1.027344 2.101563 2.882813 3.683594 5.117188 4.367188 11.742187 3.550781 23.925781 5.433594 36.191406 5.589844v-17.066406c-10.511719-.164063-20.949219-1.785157-31.019531-4.8125-4.347657-1.304688-8.964844.960937-10.597657 5.195312zm0 0"/><path d="m256 17.066406v-17.066406c-43.683594-.015625-83.886719 23.824219-104.824219 62.160156-20.9375 38.335938-19.269531 85.050782 4.351563 121.792969 1.613281 2.601563 3.375 5.105469 5.285156 7.5 1.339844 1.925781 3.441406 3.1875 5.773438 3.464844 2.332031.277343 4.671874-.457031 6.425781-2.011719 3.34375-3.015625 3.945312-8.039062 1.402343-11.75-1.644531-2.050781-3.15625-4.199219-4.53125-6.4375-20.136718-31.507812-21.507812-71.484375-3.582031-104.300781 17.925781-32.816407 52.304688-53.265625 89.699219-53.351563zm0 0"/><path d="m187.066406 216.933594c1.9375 1.433594 4.390625 1.984375 6.75 1.511718l1.589844-.53125c.539062-.222656 1.039062-.523437 1.492188-.894531.464843-.28125.882812-.636719 1.238281-1.050781.371093-.429688.714843-.886719 1.023437-1.363281 1.109375-1.945313 1.5-4.214844 1.109375-6.417969-1.03125-4.242188-5.046875-7.0625-9.386719-6.585938-1.105468.207032-2.167968.597657-3.140624 1.160157-.972657.53125-1.84375 1.234375-2.558594 2.082031-1.441406 1.742188-2.09375 4.003906-1.800782 6.246094.464844 2.335937 1.777344 4.417968 3.683594 5.84375zm0 0"/><path d="m256 238.933594c-4.710938 0-8.53125-3.820313-8.53125-8.535156 0-4.710938 3.820312-8.53125 8.53125-8.53125 56.554688 0 102.398438-45.847657 102.398438-102.398438 0-56.554688-45.84375-102.402344-102.398438-102.402344-4.710938 0-8.53125-3.820312-8.53125-8.53125 0-4.714844 3.820312-8.535156 8.53125-8.535156 65.980469 0 119.46875 53.488281 119.46875 119.46875 0 65.976562-53.488281 119.464844-119.46875 119.464844zm0 0"/><path d="m179.199219 128c-4.710938 0-8.53125-3.820312-8.53125-8.53125.050781-47.109375 38.226562-85.285156 85.332031-85.335938 4.714844 0 8.535156 3.820313 8.535156 8.535157 0 4.710937-3.820312 8.53125-8.535156 8.53125-37.683594.042969-68.222656 30.582031-68.265625 68.269531 0 2.261719-.898437 4.433594-2.5 6.03125-1.601563 1.601562-3.769531 2.5-6.035156 2.5zm0 0"/><path d="m25.601562 59.734375h-8.535156c-4.710937 0-8.53125-3.820313-8.53125-8.535156 0-4.710938 3.820313-8.53125 8.53125-8.53125h8.535156c4.710938 0 8.53125 3.820312 8.53125 8.53125 0 4.714843-3.820312 8.535156-8.53125 8.535156zm0 0"/><path d="m42.667969 42.667969c-4.714844 0-8.535157-3.820313-8.535157-8.535157v-8.53125c0-4.714843 3.820313-8.535156 8.535157-8.535156 4.710937 0 8.53125 3.820313 8.53125 8.535156v8.53125c0 4.714844-3.820313 8.535157-8.53125 8.535157zm0 0"/><path d="m68.265625 59.734375h-8.53125c-4.714844 0-8.535156-3.820313-8.535156-8.535156 0-4.710938 3.820312-8.53125 8.535156-8.53125h8.53125c4.714844 0 8.535156 3.820312 8.535156 8.53125 0 4.714843-3.820312 8.535156-8.535156 8.535156zm0 0"/><path d="m42.667969 85.332031c-4.714844 0-8.535157-3.820312-8.535157-8.53125v-8.535156c0-4.710937 3.820313-8.53125 8.535157-8.53125 4.710937 0 8.53125 3.820313 8.53125 8.53125v8.535156c0 4.710938-3.820313 8.53125-8.53125 8.53125zm0 0"/><path d="m452.265625 119.46875c-4.710937 0-8.53125-3.824219-8.53125-8.535156v-8.535156c0-4.710938 3.820313-8.53125 8.53125-8.53125 4.714844 0 8.535156 3.820312 8.535156 8.53125v8.535156c0 4.710937-3.820312 8.535156-8.535156 8.535156zm0 0"/><path d="m477.867188 136.535156h-8.535157c-4.710937 0-8.53125-3.820312-8.53125-8.535156 0-4.710938 3.820313-8.53125 8.53125-8.53125h8.535157c4.710937 0 8.53125 3.820312 8.53125 8.53125 0 4.714844-3.820313 8.535156-8.53125 8.535156zm0 0"/><path d="m452.265625 162.132812c-4.710937 0-8.53125-3.820312-8.53125-8.53125v-8.535156c0-4.710937 3.820313-8.53125 8.53125-8.53125 4.714844 0 8.535156 3.820313 8.535156 8.53125v8.535156c0 4.710938-3.820312 8.53125-8.535156 8.53125zm0 0"/><path d="m435.199219 136.535156h-8.53125c-4.714844 0-8.535157-3.820312-8.535157-8.535156 0-4.710938 3.820313-8.53125 8.535157-8.53125h8.53125c4.714843 0 8.535156 3.820312 8.535156 8.53125 0 4.714844-3.820313 8.535156-8.535156 8.535156zm0 0"/><path d="m97.109375 495.105469c-2.039063.003906-4.011719-.730469-5.554687-2.066407-14.835938-12.773437-19.074219-34.003906-10.28125-51.496093 8.792968-17.488281 28.359374-26.753907 47.460937-22.46875 19.101563 4.285156 32.835937 21.019531 33.3125 40.589843.078125 3.371094-1.832031 6.46875-4.878906 7.910157l-56.40625 26.710937c-1.144531.535156-2.390625.816406-3.652344.820313zm22.359375-59.90625c-9.71875-.015625-18.609375 5.472656-22.949219 14.164062-4.34375 8.695313-3.386719 19.097657 2.46875 26.855469l45.308594-21.390625c-2.789063-11.46875-13.027344-19.5625-24.828125-19.628906zm0 0"/><path d="m119.46875 315.734375c-18.082031.011719-34.207031-11.371094-40.25-28.410156-6.039062-17.042969-.683594-36.039063 13.367188-47.417969 2.578124-2.09375 6.132812-2.5 9.113281-1.050781l55.636719 27.050781c2.976562 1.449219 4.84375 4.484375 4.796874 7.792969-.425781 23.28125-19.378906 41.953125-42.664062 42.035156zm-19.816406-58.882813c-6.683594 8.195313-7.640625 19.65625-2.410156 28.847657 5.230468 9.1875 15.574218 14.214843 26.03125 12.652343 10.460937-1.5625 18.878906-9.394531 21.195312-19.710937zm0 0"/><path d="m414.890625 495.105469c-1.265625-.015625-2.511719-.304688-3.652344-.855469l-56.40625-26.707031c-3.046875-1.441407-4.957031-4.542969-4.878906-7.910157.476563-19.574218 14.210937-36.308593 33.3125-40.59375 19.101563-4.285156 38.667969 4.980469 47.460937 22.472657 8.792969 17.488281 4.554688 38.71875-10.28125 51.492187-1.535156 1.347656-3.511718 2.09375-5.554687 2.101563zm-47.1875-40.277344 45.308594 21.390625c6.289062-8.304688 6.917969-19.597656 1.585937-28.550781-5.332031-8.949219-15.558594-13.777344-25.859375-12.207031-10.296875 1.574218-18.617187 9.230468-21.035156 19.367187zm0 0"/><path d="m392.535156 315.734375c-23.289062-.082031-42.242187-18.753906-42.667968-42.035156-.046876-3.308594 1.820312-6.34375 4.796874-7.792969l55.636719-27.050781c2.984375-1.449219 6.539063-1.042969 9.113281 1.050781 14.050782 11.378906 19.40625 30.375 13.367188 47.417969-6.042969 17.039062-22.167969 28.421875-40.246094 28.410156zm-25.003906-37.113281c2.304688 10.324218 10.726562 18.167968 21.1875 19.734375 10.460938 1.570312 20.808594-3.457031 26.042969-12.648438 5.234375-9.191406 4.273437-20.660156-2.414063-28.855469zm0 0"/></g></svg>