<svg id="Layer_1" enable-background="new 0 0 128 128" height="512" viewBox="0 0 128 128" width="512" xmlns="http://www.w3.org/2000/svg"><g><path d="m124.946 103.274h-10.547v-58.525c0-3.859-3.141-7-7-7h-6.532v-17.902c0-1.654-1.346-3-3-3h-63.734c-1.654 0-3 1.346-3 3v17.902h-6.534c-3.859 0-7 3.141-7 7v58.525h-10.545c-.553 0-1 .447-1 1v3.934c0 3.83 3.115 6.945 6.945 6.945h106c3.831 0 6.947-3.115 6.947-6.945v-3.934c0-.552-.447-1-1-1z" fill="#e6e7e8"/><g><g><g fill="#0089ef"><path d="m20.599 34.749c-3.314 0-6 2.686-6 6v59.526h13.534v-65.526z"/><path d="m103.4 34.749h-7.533v65.526h13.533v-59.526c0-3.314-2.687-6-6-6z"/></g><g fill="#d4fbff"><path d="m100.372 43.586h-4.505v56.689h6.505v-54.689c0-1.105-.896-2-2-2z"/><path d="m23.627 43.586c-1.105 0-2 .895-2 2v54.689h6.506v-56.689z"/></g><path d="m3.054 100.274v3.933c0 3.283 2.662 5.945 5.945 5.945h106c3.284 0 5.946-2.662 5.946-5.945v-3.933z" fill="#0089ef"/><path d="m42.948 100.274v1.991c0 1.662 1.347 3.009 3.009 3.009h32.083c1.662 0 3.01-1.348 3.01-3.009v-1.991z" fill="#6dc9f7"/></g><path d="m95.867 100.274h-67.734v-84.427c0-1.105.895-2 2-2h63.734c1.105 0 2 .895 2 2z" fill="#ffd7e5"/><path d="m93.867 13.847h-63.734c-1.105 0-2 .896-2 2v3c0-1.104.895-2 2-2h63.734c1.105 0 2 .896 2 2v-3c0-1.105-.895-2-2-2z" fill="#fff"/><g><g><path d="m39.688 52.303h7.372v7.449h-7.372z" fill="#6dc9f7"/><path d="m52.105 44.101h7.372v15.652h-7.372z" fill="#0089ef"/><path d="m64.523 48.209h7.372v11.544h-7.372z" fill="#6dc9f7"/><path d="m76.94 38.513h7.372v21.24h-7.372z" fill="#0089ef"/></g><circle cx="43.374" cy="43.237" fill="#6dc9f7" r="2.465"/><circle cx="55.791" cy="32.062" fill="#0089ef" r="2.465"/><circle cx="68.209" cy="38.307" fill="#6dc9f7" r="2.465"/><circle cx="80.626" cy="26.968" fill="#0089ef" r="2.465"/></g><g><g><path d="m45.385 90.132c1.088.36 2.249.558 3.458.558 6.075 0 11-4.925 11-11h-11z" fill="#d4fbff"/><path d="m48.843 68.689c-6.075 0-11 4.925-11 11 0 4.867 3.162 8.992 7.542 10.442l3.458-10.442z" fill="#0089ef"/><path d="m48.843 68.689v11h11c0-6.075-4.925-11-11-11z" fill="#fa759e"/></g><g fill="#3a2c60"><path d="m21.627 86.786c.553 0 1-.447 1-1v-8.583c0-.553-.447-1-1-1s-1 .447-1 1v8.583c0 .553.447 1 1 1z"/><path d="m120.945 99.274h-10.545v-58.525c0-3.859-3.141-7-7-7h-6.532v-17.902c0-1.654-1.346-3-3-3h-63.735c-1.654 0-3 1.346-3 3v17.902h-6.534c-3.859 0-7 3.141-7 7v58.525h-10.545c-.553 0-1 .447-1 1v3.934c0 3.829 3.115 6.944 6.945 6.944h106c3.83 0 6.946-3.115 6.946-6.944v-3.934c0-.552-.447-1-1-1zm-17.545-63.525c2.757 0 5 2.243 5 5v58.525h-5.028v-53.688c0-1.654-1.346-3-3-3h-3.504v-6.837zm-6.533 63.525v-54.688h3.504c.552 0 1 .448 1 1v53.688zm-67.734-83.427c0-.552.448-1 1-1h63.734c.552 0 1 .448 1 1v83.428h-65.734zm-13.534 24.902c0-2.757 2.243-5 5-5h6.534v6.837h-3.506c-1.654 0-3 1.346-3 3v27.284c0 .553.447 1 1 1s1-.447 1-1v-27.284c0-.552.448-1 1-1h3.506v54.688h-4.506v-9.321c0-.553-.447-1-1-1s-1 .447-1 1v9.321h-5.028zm104.346 63.459c0 2.727-2.219 4.944-4.946 4.944h-106c-2.727 0-4.945-2.218-4.945-4.944v-2.934h24.079 67.734 24.078z"/><path d="m86.655 58.753h-1.344v-20.24c0-.553-.447-1-1-1h-7.371c-.553 0-1 .447-1 1v20.24h-3.045v-10.544c0-.553-.447-1-1-1h-7.372c-.553 0-1 .447-1 1v10.544h-3.045v-14.652c0-.553-.447-1-1-1h-7.372c-.553 0-1 .447-1 1v14.652h-3.046v-6.449c0-.553-.447-1-1-1h-7.371c-.553 0-1 .447-1 1v6.449h-1.344c-.553 0-1 .447-1 1s.447 1 1 1h49.311c.553 0 1-.447 1-1s-.448-1-1.001-1zm-45.966 0v-5.449h5.371v5.449zm12.417 0v-13.652h5.372v13.652zm12.417 0v-9.544h5.372v9.544zm12.417 0v-19.24h5.372v19.24z"/><path d="m43.374 46.702c1.91 0 3.465-1.555 3.465-3.465 0-.52-.123-1.008-.329-1.451l7.567-6.731c.508.292 1.088.472 1.714.472.971 0 1.847-.404 2.477-1.049l6.55 3.118c-.048.23-.075.467-.075.711 0 1.91 1.555 3.465 3.465 3.465 1.911 0 3.466-1.555 3.466-3.465 0-.572-.153-1.104-.399-1.58l7.651-6.758c.504.287 1.079.464 1.7.464 1.91 0 3.465-1.555 3.465-3.465s-1.555-3.465-3.465-3.465c-1.911 0-3.466 1.555-3.466 3.465 0 .561.147 1.084.385 1.553l-7.665 6.77c-.498-.277-1.063-.449-1.672-.449-.945 0-1.801.382-2.427.998l-6.589-3.136c.039-.208.065-.421.065-.641 0-1.911-1.555-3.466-3.466-3.466-1.91 0-3.465 1.555-3.465 3.466 0 .555.143 1.073.377 1.538l-7.524 6.692c-.527-.325-1.142-.522-1.805-.522-1.91 0-3.465 1.555-3.465 3.466s1.555 3.465 3.465 3.465zm37.252-21.199c.808 0 1.465.657 1.465 1.465s-.657 1.465-1.465 1.465c-.809 0-1.466-.657-1.466-1.465s.658-1.465 1.466-1.465zm-12.418 11.339c.809 0 1.466.657 1.466 1.465s-.657 1.465-1.466 1.465c-.808 0-1.465-.657-1.465-1.465s.658-1.465 1.465-1.465zm-12.417-6.245c.809 0 1.466.657 1.466 1.466 0 .808-.657 1.465-1.466 1.465-.808 0-1.465-.657-1.465-1.465 0-.809.658-1.466 1.465-1.466zm-12.417 11.175c.808 0 1.465.657 1.465 1.466 0 .808-.657 1.465-1.465 1.465s-1.465-.657-1.465-1.465c0-.809.658-1.466 1.465-1.466z"/><path d="m48.843 67.69c-6.617 0-12 5.383-12 12 0 5.185 3.307 9.763 8.228 11.392 1.219.403 2.488.608 3.772.608 6.617 0 12-5.383 12-12s-5.383-12-12-12zm-10 12c0-5.177 3.954-9.447 9-9.95v9.789l-.121.366-2.956 8.927c-3.58-1.596-5.923-5.149-5.923-9.132zm10 10c-.735 0-1.465-.08-2.179-.24l.533-1.61 2.368-7.15h9.228c-.503 5.045-4.773 9-9.95 9zm1-11v-8.95c4.717.471 8.479 4.233 8.95 8.95z"/><path d="m86.156 70.894h-19.627c-.553 0-1 .447-1 1s.447 1 1 1h19.627c.553 0 1-.447 1-1s-.447-1-1-1z"/><path d="m86.156 78.69h-19.627c-.553 0-1 .447-1 1s.447 1 1 1h19.627c.553 0 1-.447 1-1s-.447-1-1-1z"/><path d="m86.156 86.485h-19.627c-.553 0-1 .447-1 1s.447 1 1 1h19.627c.553 0 1-.447 1-1s-.447-1-1-1z"/></g></g></g></g></svg>